<svg width="12" height="6" viewBox="0 0 12 6" fill="none" xmlns="http://www.w3.org/2000/svg">
<path d="M8.7065 0.000732047C7.1054 0.000732047 6.04568 1.30973 5.11079 2.46498C4.31207 3.45185 3.55801 4.38382 2.63922 4.38382C1.68456 4.38382 1.09815 3.40244 1.09815 2.69889C1.09815 2.04659 1.7413 1.09852 2.7494 1.09852C3.72749 1.09852 4.23703 1.88113 4.26265 1.9214C4.42115 2.17763 4.75755 2.25853 5.01525 2.10149C5.27405 1.94373 5.35641 1.60586 5.19828 1.3467C5.1646 1.29179 4.35929 0.000366198 2.7494 0.000366198C1.12926 0.000366198 0 1.42247 0 2.69889C0 4.0152 1.08387 5.48197 2.63922 5.48197C4.08182 5.48197 5.03905 4.29926 5.96442 3.15572C6.82061 2.0982 7.62922 1.09888 8.7065 1.09888C9.34745 1.09888 9.76841 1.31632 9.99353 1.7629C10.1886 2.15054 10.1886 2.58944 10.1883 2.74135C10.1883 2.82847 10.1421 3.26553 9.92911 3.6594C9.68605 4.10781 9.34087 4.31646 8.84194 4.31646C7.8375 4.31646 7.29501 3.66343 7.09039 3.41744C7.03731 3.35338 6.99888 3.30763 6.948 3.2637C6.71812 3.0664 6.3711 3.09312 6.1738 3.32337C5.98345 3.54556 6.00176 3.87574 6.20967 4.07597C6.21956 4.08732 6.23164 4.10196 6.24591 4.11916C6.51203 4.43982 7.3221 5.41425 8.84194 5.41425C10.689 5.41425 11.2864 3.61328 11.2864 2.73366C11.2864 2.17361 11.1817 1.6809 10.9742 1.26873C10.6828 0.690005 10.0528 0 8.7065 0V0.000732047Z" fill="#333A73"/>
</svg>
