<svg width="13" height="13" viewBox="0 0 13 13" fill="none" xmlns="http://www.w3.org/2000/svg">
<path d="M1.89211 1.89258H10.7218C11.1002 1.89258 11.3524 2.14485 11.3524 2.52327V8.83015C11.3524 9.20856 11.1002 9.46084 10.7218 9.46084H1.89211C1.5137 9.46084 1.26143 9.20856 1.26143 8.83015V2.52327C1.26143 2.14485 1.5137 1.89258 1.89211 1.89258ZM10.0911 3.15396H2.5228V8.19946H10.0911V3.15396ZM8.199 3.78464H3.15349V6.3074L8.199 3.78464ZM11.9831 10.7222V10.0915H0.630737V10.7222C0.630737 11.1006 0.946081 11.3529 1.32449 11.3529H11.2894C11.6678 11.3529 11.9831 11.1006 11.9831 10.7222Z" fill="#333A73"/>
</svg>
