<svg width="57" height="57" viewBox="0 0 57 57" fill="none" xmlns="http://www.w3.org/2000/svg">
<path d="M28.5 0.0625C22.8756 0.0625 17.3775 1.73033 12.701 4.85508C8.02446 7.97984 4.37956 12.4212 2.22719 17.6174C0.0748215 22.8137 -0.488336 28.5315 0.608931 34.0479C1.7062 39.5642 4.41461 44.6313 8.39166 48.6083C12.3687 52.5854 17.4358 55.2938 22.9521 56.3911C28.4685 57.4883 34.1863 56.9252 39.3826 54.7728C44.5788 52.6205 49.0202 48.9756 52.1449 44.299C55.2697 39.6225 56.9375 34.1244 56.9375 28.5C56.9375 20.9579 53.9414 13.7247 48.6084 8.39165C43.2753 3.05858 36.0421 0.0625 28.5 0.0625ZM43.6267 30.318L19.2517 42.5055C18.942 42.6603 18.5978 42.7333 18.2519 42.7176C17.9059 42.7019 17.5698 42.5981 17.2753 42.416C16.9808 42.2338 16.7377 41.9794 16.5692 41.6769C16.4007 41.3744 16.3124 41.0338 16.3125 40.6875V16.3125C16.3127 15.9664 16.4013 15.6261 16.57 15.3238C16.7386 15.0216 16.9817 14.7675 17.2761 14.5855C17.5706 14.4036 17.9066 14.3 18.2524 14.2844C18.5981 14.2688 18.9421 14.3419 19.2517 14.4966L43.6267 26.6841C43.9637 26.8529 44.247 27.1122 44.445 27.4329C44.643 27.7536 44.7478 28.1231 44.7478 28.5C44.7478 28.8769 44.643 29.2464 44.445 29.5671C44.247 29.8878 43.9637 30.1471 43.6267 30.3159" fill="#F4F4F4"/>
</svg>
