<svg width="25" height="25" viewBox="0 0 25 25" fill="none" xmlns="http://www.w3.org/2000/svg">
<path d="M23.3737 9.1843C19.9689 13.0008 16.9662 13.1323 12.3487 13.3296H12.1907C6.5718 13.3269 2.58647 11.5726 2.58647 10.9203C2.58334 10.3008 6.18218 8.68849 11.3567 8.52805L12.2799 6.59087L12.1907 6.58824C4.51107 6.58824 0 8.64246 0 10.6007V13.2309C0 14.4382 0.910664 25 11.8637 25C22.8167 25 24.3814 14.4382 24.3814 13.2309V10.6007C24.3814 10.0865 24.0669 9.56568 23.4676 9.07777L23.3737 9.1843ZM24.3751 2.91115C24.043 2.70242 23.626 2.61303 23.2155 2.66259C22.8051 2.71216 22.4348 2.89663 22.1861 3.17549L16.5406 9.49993L20.1958 1.82222C20.2758 1.66127 20.3169 1.48854 20.3168 1.3141C20.3166 1.13965 20.2751 0.966981 20.1948 0.806132C20.1145 0.645284 19.9969 0.499475 19.8489 0.377194C19.7008 0.254914 19.5254 0.158607 19.3326 0.0938808C19.1399 0.0291544 18.9338 -0.00269783 18.7262 0.000178844C18.5187 0.00305552 18.314 0.0406036 18.1239 0.110637C17.9338 0.18067 17.7622 0.281789 17.619 0.408105C17.4759 0.534421 17.3641 0.683411 17.2901 0.846398L12.1907 11.5542C16.7002 11.3608 18.883 11.2556 21.6838 8.12036L24.6865 4.75232C24.9356 4.47345 25.0428 4.12282 24.9844 3.77754C24.926 3.43226 24.7069 3.12062 24.3751 2.91115Z" fill="#333A73"/>
</svg>
