<svg width="28" height="28" viewBox="0 0 28 28" fill="none" xmlns="http://www.w3.org/2000/svg">
<path d="M24.5 8.16699H22.1667C21.5223 8.16699 21 8.68933 21 9.33366V22.167C21 22.8113 21.5223 23.3337 22.1667 23.3337H24.5C25.1443 23.3337 25.6667 22.8113 25.6667 22.167V9.33366C25.6667 8.68933 25.1443 8.16699 24.5 8.16699Z" stroke="#333A73" stroke-width="0.625" stroke-linejoin="round"/>
<path d="M15.1667 15.167H12.8334C12.1891 15.167 11.6667 15.6893 11.6667 16.3337V22.167C11.6667 22.8113 12.1891 23.3337 12.8334 23.3337H15.1667C15.8111 23.3337 16.3334 22.8113 16.3334 22.167V16.3337C16.3334 15.6893 15.8111 15.167 15.1667 15.167Z" stroke="#333A73" stroke-width="0.625" stroke-linejoin="round"/>
<path d="M5.83337 10.5H3.50004C2.85571 10.5 2.33337 11.0223 2.33337 11.6667V22.1667C2.33337 22.811 2.85571 23.3333 3.50004 23.3333H5.83337C6.47771 23.3333 7.00004 22.811 7.00004 22.1667V11.6667C7.00004 11.0223 6.47771 10.5 5.83337 10.5Z" stroke="#333A73" stroke-width="0.625" stroke-linejoin="round"/>
</svg>
