<svg width="12" height="9" viewBox="0 0 12 9" fill="none" xmlns="http://www.w3.org/2000/svg">
<path d="M1.11505 0H3.01265H5.71577H8.36103H10.1714C10.4781 0 10.7574 0.125833 10.9594 0.326983C11.1615 0.529051 11.2864 0.808272 11.2864 1.11505V1.76993V7.0283V7.67951C11.2864 7.98628 11.1606 8.2655 10.9594 8.46757C10.7574 8.66964 10.4781 8.79456 10.1714 8.79456H8.40787C8.39317 8.79731 8.37756 8.79823 8.36103 8.79823C8.34541 8.79823 8.3298 8.79731 8.31418 8.79456H5.76262C5.74792 8.79731 5.73231 8.79823 5.71577 8.79823C5.70016 8.79823 5.68454 8.79731 5.66893 8.79456H3.05949C3.0448 8.79731 3.02918 8.79823 3.01265 8.79823C2.99704 8.79823 2.98142 8.79731 2.96581 8.79456H1.11505C0.808272 8.79456 0.529051 8.66872 0.326983 8.46757C0.124915 8.26642 0 7.98628 0 7.67951V7.0283V1.76993V1.11505C0 0.808272 0.125833 0.529051 0.326983 0.326983C0.529051 0.125833 0.808272 0 1.11505 0ZM5.06915 2.86937L6.95482 4.18465C6.98421 4.20302 7.01084 4.22873 7.03197 4.25904C7.11647 4.3812 7.08524 4.54745 6.964 4.63195L5.08569 5.9307C5.03976 5.96836 4.98006 5.99132 4.91577 5.99132C4.76697 5.99132 4.64665 5.871 4.64665 5.7222V3.08889H4.64757C4.64757 3.03561 4.66318 2.98234 4.69533 2.9355C4.78075 2.81426 4.94791 2.78487 5.06915 2.86937ZM8.62923 7.29741V8.25724H10.1705C10.3294 8.25724 10.4736 8.19203 10.5783 8.08732C10.683 7.98261 10.7482 7.83841 10.7482 7.67951V7.29741H8.62923ZM8.09191 8.25724V7.29741H5.98489V8.25724H8.09191ZM5.44757 8.25724V7.29741H3.28177V8.25724H5.44757ZM2.74353 8.25724V7.29741H0.537317V7.67951C0.537317 7.83841 0.60253 7.98261 0.707238 8.08732C0.811946 8.19203 0.95615 8.25724 1.11505 8.25724H2.74353ZM0.537317 6.7601H3.01265H5.71577H8.36103H10.7491V2.03905H8.36103H5.71577H3.01265H0.537317V6.7601ZM8.09191 1.50173V0.537317H5.98489V1.50082H8.09191V1.50173ZM8.62923 0.537317V1.50082H10.7482V1.11505C10.7482 0.95615 10.683 0.811946 10.5783 0.707238C10.4736 0.60253 10.3294 0.537317 10.1705 0.537317H8.62923ZM5.44757 1.50173V0.537317H3.28177V1.50082H5.44757V1.50173ZM2.74353 1.50173V0.537317H1.11505C0.95615 0.537317 0.811946 0.60253 0.707238 0.707238C0.60253 0.811946 0.537317 0.95615 0.537317 1.11505V1.50082H2.74353V1.50173Z" fill="#333A73"/>
</svg>
